<?xml version="1.0" encoding="UTF-8"?>
<svg id="Camada_1" xmlns="http://www.w3.org/2000/svg" version="1.1" viewBox="0 0 375 130.2">
  <!-- Generator: Adobe Illustrator 29.4.0, SVG Export Plug-In . SVG Version: 2.1.0 Build 152)  -->
  <defs>
    <style>
      .st0, .st1 {
        fill: #fff;
      }

      .st1 {
        fill-rule: evenodd;
      }
    </style>
  </defs>
  <path class="st0" d="M45.8,69.2c2,0,3.8-.3,5.4-.9,1.6-.6,2.8-1.1,3.6-1.7l4.1,8.1c-1,.9-2.7,1.7-5.1,2.6-2.4.9-5.3,1.3-8.6,1.3s-6-.5-8.8-1.6c-2.7-1.1-5.1-2.6-7.2-4.6s-3.7-4.3-4.9-7c-1.2-2.7-1.8-5.5-1.8-8.7s.6-6,1.8-8.7c1.2-2.7,2.8-5,4.9-7,2.1-2,4.5-3.5,7.2-4.6,2.7-1.1,5.7-1.7,8.8-1.7s6.2.4,8.6,1.3c2.4.9,4.1,1.7,5.1,2.6l-4.1,8.1c-.8-.6-2-1.1-3.6-1.7-1.6-.6-3.4-.8-5.4-.8s-4.1.3-5.7,1c-1.6.7-3,1.6-4.1,2.8-1.1,1.2-1.9,2.5-2.4,4s-.8,3-.8,4.6.3,3.2.8,4.7c.5,1.5,1.3,2.8,2.4,4,1.1,1.2,2.4,2.1,4.1,2.8,1.6.7,3.5,1,5.7,1Z"/>
  <path class="st0" d="M71.9,35.6h14.5c2.4,0,4.7.3,6.7,1,2.1.7,3.7,1.7,5,3.3,1.3,1.5,1.9,3.5,1.9,6.1s-.3,3.2-.9,4.5c-.6,1.3-1.5,2.4-2.5,3.3-1,.8-2.2,1.4-3.4,1.7,1.1.1,2.1.4,3.1.9,1,.5,1.9,1.1,2.8,2,.8.8,1.5,1.9,2,3.1.5,1.3.7,2.7.7,4.4s-.5,4.5-1.6,6.3-2.6,3.2-4.6,4.2c-2,1-4.5,1.5-7.4,1.5h-16.2v-42.3ZM81.5,52.5h3.9c1.1,0,2.1-.2,2.8-.6.8-.4,1.3-1,1.7-1.7.4-.7.6-1.6.6-2.5,0-1.7-.5-2.9-1.5-3.5s-2.3-.9-4-.9h-3.5v9.3ZM81.5,70.2h4.4c1.4,0,2.5-.2,3.3-.6.9-.4,1.5-1,1.9-1.8s.6-1.7.6-2.8c0-1.7-.5-3-1.6-3.8s-2.5-1.2-4.4-1.2h-4.2v10.2Z"/>
  <path class="st0" d="M122.2,44h-10.1v-8.4h29.7v8.4h-10.1v33.9h-9.6v-33.9Z"/>
  <path class="st0" d="M247,35.6h9.6v26c0,3.5-.7,6.5-2.1,9.1-1.4,2.6-3.3,4.5-5.9,5.9s-5.6,2.1-9.1,2.1-6.6-.7-9.2-2.1-4.5-3.4-5.9-5.9c-1.4-2.6-2-5.6-2-9.1v-26h9.6v25.5c0,1.9.3,3.5.9,4.9.6,1.3,1.5,2.3,2.6,3,1.1.7,2.5,1,4,1s2.8-.3,3.9-1c1.1-.7,2-1.7,2.6-3,.6-1.3.9-2.9.9-4.9v-25.5Z"/>
  <path class="st0" d="M270,35.6h17.2c2.5,0,4.6.5,6.6,1.5,1.9,1,3.4,2.5,4.6,4.4s1.7,4.2,1.7,6.9-.5,4.9-1.4,6.6-2.1,3-3.4,3.8c-1.3.8-2.6,1.4-3.7,1.5l10.3,17.5h-10.8l-9.2-16.8h-2.3v16.8h-9.6v-42.3ZM279.6,54.5h4.2c1.7,0,3.2-.4,4.5-1.3s1.9-2.3,1.9-4.4-.6-3.6-1.9-4.4c-1.3-.8-2.7-1.2-4.5-1.2h-4.3v11.3Z"/>
  <g>
    <path class="st0" d="M75.8,103.4s0,0,0,0c-2.2,0-4.4,0-6.6,0-.7,0-1.2-.5-1.2-1.2,0-.7.5-1.2,1.2-1.2,2.2,0,4.4,0,6.6,0,.7,0,1.2.5,1.2,1.2,0,.7-.5,1.2-1.2,1.2"/>
    <path class="st0" d="M218,125.1s0,0,0,0c-4.8-.1-9.2-.8-13.4-2.2-.6-.2-1-.9-.8-1.5.2-.6.9-1,1.5-.8,4,1.3,8.1,1.9,12.7,2,.7,0,1.2.6,1.2,1.2,0,.6-.5,1.2-1.2,1.2M227.4,124.7c-.6,0-1.2-.4-1.3-1.1,0-.7.4-1.3,1.1-1.3,4-.5,8.3-1.4,12.8-2.6.6-.2,1.3.2,1.5.8.2.6-.2,1.3-.9,1.5-4.6,1.3-9,2.1-13.1,2.6,0,0,0,0,0,0ZM249.3,119.2c-.5,0-1-.3-1.2-.8-.2-.6.1-1.3.7-1.6,4-1.4,8-3.2,12-5.2.6-.3,1.3,0,1.6.5.3.6,0,1.3-.5,1.6-4,2.1-8.2,3.9-12.3,5.3-.1,0-.2,0-.4,0ZM196.4,119.3c-.2,0-.4,0-.6-.1-4.1-2.2-7.2-4.4-10.9-7.9-.5-.5-.5-1.2,0-1.7.5-.5,1.2-.5,1.7,0,3.6,3.4,6.4,5.4,10.4,7.5.6.3.8,1,.5,1.6-.2.4-.6.6-1,.6ZM269.7,109.3c-.4,0-.8-.2-1.1-.6-.4-.6-.2-1.3.4-1.7,3.6-2.2,7.1-4.6,10.8-7.4.5-.4,1.3-.3,1.7.2.4.5.3,1.3-.2,1.7-3.8,2.8-7.4,5.3-11,7.5-.2.1-.4.2-.6.2ZM178.9,105.1c-.3,0-.6-.1-.9-.3-3.7-3.6-6.7-6.6-9.4-9.4-.5-.5-.4-1.3,0-1.7.5-.5,1.3-.4,1.7,0,2.6,2.8,5.6,5.8,9.3,9.3.5.5.5,1.2,0,1.7-.2.2-.5.4-.8.4ZM288,96.1c-.4,0-.7-.1-1-.4-.4-.5-.4-1.3.2-1.7,3.1-2.5,6.3-5.2,10-8.6.5-.4,1.3-.4,1.7,0,.4.5.4,1.3-.1,1.7-3.8,3.4-7,6.1-10.1,8.6-.2.2-.5.3-.7.3ZM121.1,102.3c-4.1.2-8.6.3-13.2.5-.7,0-1.2-.5-1.3-1.2,0-.7.5-1.2,1.2-1.3,0,0,0,0,0,0,4.7-.2,9.1-.3,13.2-.4.7,0,1.2.5,1.3,1.2,0,.7-.5,1.2-1.2,1.3ZM130.5,101.8c-.7,0-1.2-.4-1.3-1.1,0-.7.5-1.2,1.1-1.3,5.2-.3,9.1-.6,11.3-.9.6,0,1.2-.1,1.8-.2.7,0,1.3.4,1.4,1.1,0,.7-.4,1.3-1.1,1.4-.6,0-1.2.1-1.8.2-2.3.3-6.2.6-11.5.8,0,0,0,0,0,0ZM98.5,103.1h0c-4.4.2-8.9.1-13.3.2-.7,0-1.2-.5-1.2-1.2,0-.7.5-1.2,1.2-1.2,4.4,0,8.8-.2,13.2-.3.7,0,1.2.6,1.2,1.2,0,.7-.5,1.3-1.2,1.3ZM153,99.7c-.6,0-1.2-.4-1.3-1,0-.7.4-1.3,1-1.4,4.8-.6,9.1-1.3,13-2.1.7-.1,1.3.3,1.4,1,.1.7-.3,1.3-1,1.4-4,.8-8.3,1.5-13.2,2.1,0,0,0,0-.1,0ZM175.3,95.5c-.6,0-1.1-.3-1.2-.9-.2-.6.2-1.3.9-1.5,4.5-1.2,8.7-2.5,12.4-4.1.6-.2,1.3,0,1.6.7.3.6,0,1.3-.7,1.6-3.8,1.5-8.1,2.9-12.7,4.2,0,0-.2,0-.3,0ZM163.4,88.7c-.4,0-.7-.1-1-.4-3.1-3.8-5.7-7.4-7.8-10.9-.3-.6-.2-1.3.4-1.7.6-.3,1.3-.2,1.7.4,2,3.4,4.6,6.9,7.6,10.6.4.5.4,1.3-.2,1.7-.2.2-.5.3-.7.3ZM196.3,87.3c-.4,0-.9-.2-1.1-.6-.3-.6-.1-1.3.4-1.7,4-2.3,7.4-5,10.1-7.9.5-.5,1.2-.5,1.7,0,.5.5.5,1.2,0,1.7-2.8,3.1-6.4,5.9-10.7,8.3-.2.1-.4.2-.6.2ZM305,81.2c-.3,0-.7-.1-.9-.4-.5-.5-.4-1.3,0-1.7l2.3-2.1c2.5-2.2,5-4.5,7.5-6.8.5-.4,1.3-.4,1.7,0,.4.5.4,1.3,0,1.7-2.5,2.2-5.1,4.6-7.5,6.8l-2.3,2.1c-.2.2-.5.3-.8.3ZM212,71.5c-.2,0-.4,0-.6-.1-.6-.3-.9-1-.6-1.6,1.8-3.8,2.7-7.8,2.7-12.1,0-.7.5-1.1,1.2-1.1,0,0,0,0,0,0,.7,0,1.2.4,1.2,1.1,0,4.7-.9,9.1-2.9,13.3-.2.4-.6.6-1,.6ZM321.9,66.2c-.4,0-.7-.1-1-.4-.4-.5-.4-1.3.1-1.7,3.6-3,7.1-5.8,10.4-8.3.5-.4,1.3-.3,1.7.2.4.5.3,1.3-.2,1.7-3.3,2.4-6.7,5.2-10.3,8.2-.2.2-.5.3-.7.3ZM151.5,69.6c-.5,0-1-.3-1.2-.8-1.5-3.8-2.3-7.6-2.4-11.1,0-.8,0-1.5,0-2.2,0-.7.6-1.2,1.3-1.2.7,0,1.2.6,1.2,1.3,0,.7,0,1.4,0,2.1.1,3.3.9,6.8,2.3,10.4.2.6,0,1.3-.7,1.6-.1,0-.3,0-.4,0ZM339.9,52.5c-.4,0-.8-.2-1.1-.6-.4-.6-.2-1.3.4-1.7,4-2.6,8-4.8,11.7-6.6.6-.3,1.3,0,1.6.6.3.6,0,1.3-.6,1.6-3.6,1.7-7.4,3.8-11.4,6.4-.2.1-.4.2-.6.2ZM213.2,49.5c-.5,0-1-.3-1.2-.8-1.3-4-3.4-7.8-6.2-11.1-.4-.5-.4-1.3.2-1.7.5-.4,1.3-.4,1.7.2,2.9,3.5,5.2,7.6,6.6,11.9.2.6-.1,1.3-.8,1.5-.1,0-.2,0-.3,0ZM151.2,47.6c-.2,0-.3,0-.5,0-.6-.3-.9-1-.7-1.6,1.6-3.9,4.2-7.6,7.7-11.1h0c.5-.5,1.3-.5,1.7,0,.5.5.4,1.2,0,1.7-3.3,3.3-5.7,6.8-7.2,10.4-.2.4-.6.7-1.1.7ZM199.9,31.7c-.3,0-.5,0-.7-.2-2.8-1.9-5.8-3.4-8.9-4.3-.9-.3-1.8-.5-2.7-.6-.7-.1-1.1-.7-1-1.4.1-.7.7-1.1,1.4-1,1,.2,2,.4,3,.7,3.4,1,6.6,2.5,9.6,4.6.6.4.7,1.1.3,1.7-.2.3-.6.5-.9.5ZM166.1,31.1c-.4,0-.9-.2-1.1-.6-.3-.6-.2-1.3.4-1.7,4-2.4,8.4-4,12.8-4.7.7,0,1.3.3,1.4,1,.1.7-.3,1.3-1,1.4-4,.6-8.2,2.2-11.9,4.4-.2.1-.4.2-.6.2Z"/>
  </g>
  <path class="st1" d="M182.1,47.7c-5.6,0-10.2,4.6-10.2,10.2s4.6,10.2,10.2,10.2,10.2-4.6,10.2-10.2-4.6-10.2-10.2-10.2ZM204.6,72.3l-22.5,30.7-22.5-30.7h.1c-2.7-4.1-4.2-9-4.2-14.3,0-14.8,11.9-26.6,26.6-26.6s26.6,11.9,26.6,26.6-1.5,10.2-4.2,14.3h.1Z"/>
  <g>
    <path class="st0" d="M68.7,9.5v2.9h5v2h-5v3.9h-2.5V7.5h8.2v2h-5.7Z"/>
    <path class="st0" d="M82.4,18.2l-2.1-3h-2.3v3h-2.5V7.5h4.7c1,0,1.8.2,2.5.5.7.3,1.2.8,1.6,1.4.4.6.6,1.3.6,2.1s-.2,1.5-.6,2.1c-.4.6-.9,1-1.6,1.3l2.4,3.5h-2.7ZM81.7,10c-.4-.3-1-.5-1.7-.5h-2v3.8h2c.8,0,1.3-.2,1.7-.5.4-.3.6-.8.6-1.4s-.2-1.1-.6-1.4Z"/>
    <path class="st0" d="M95,16.2v2h-8.4V7.5h8.2v2h-5.7v2.3h5v1.9h-5v2.5h5.9Z"/>
    <path class="st0" d="M99.3,9.5h-3.5v-2h9.4v2h-3.5v8.8h-2.5v-8.8Z"/>
    <path class="st0" d="M113.6,15.9h-5l-1,2.3h-2.6l4.8-10.8h2.5l4.8,10.8h-2.6l-1-2.3ZM112.8,14l-1.7-4.1-1.7,4.1h3.4Z"/>
    <path class="st0" d="M128.2,18.2v-6.5s-3.2,5.3-3.2,5.3h-1.1l-3.2-5.2v6.3h-2.3V7.5h2.1l4,6.7,4-6.7h2.1v10.8s-2.3,0-2.3,0Z"/>
    <path class="st0" d="M140.8,16.2v2h-8.4V7.5h8.2v2h-5.7v2.3h5v1.9h-5v2.5h5.9Z"/>
    <path class="st0" d="M152.7,7.5v10.8h-2.1l-5.4-6.6v6.6h-2.5V7.5h2.1l5.4,6.6v-6.6h2.5Z"/>
    <path class="st0" d="M157.2,9.5h-3.5v-2h9.4v2h-3.5v8.8h-2.5v-8.8Z"/>
    <path class="st0" d="M166.5,17.7c-.9-.5-1.6-1.1-2.1-2s-.8-1.8-.8-2.9.3-2,.8-2.9,1.2-1.5,2.1-2c.9-.5,1.9-.7,3-.7s2.1.2,3,.7c.9.5,1.6,1.1,2.1,2s.8,1.8.8,2.9-.3,2-.8,2.9-1.2,1.5-2.1,2c-.9.5-1.9.7-3,.7s-2.1-.2-3-.7ZM171.3,15.9c.5-.3.9-.7,1.2-1.2.3-.5.4-1.1.4-1.8s-.1-1.3-.4-1.8c-.3-.5-.7-.9-1.2-1.2-.5-.3-1.1-.4-1.7-.4s-1.2.1-1.7.4c-.5.3-.9.7-1.2,1.2-.3.5-.4,1.1-.4,1.8s.1,1.3.4,1.8c.3.5.7.9,1.2,1.2.5.3,1.1.4,1.7.4s1.2-.1,1.7-.4Z"/>
    <path class="st0" d="M188.7,16.2v2h-8.4V7.5h8.2v2h-5.7v2.3h5v1.9h-5v2.5h5.9Z"/>
    <path class="st0" d="M196.6,9.5h-3.5v-2h9.4v2h-3.5v8.8h-2.5v-8.8Z"/>
    <path class="st0" d="M204.9,17.2c-.9-.9-1.3-2.1-1.3-3.7v-6h2.5v6c0,1.9.8,2.9,2.4,2.9s1.4-.2,1.8-.7c.4-.5.6-1.2.6-2.2v-6h2.5v6c0,1.6-.4,2.8-1.3,3.7s-2.1,1.3-3.6,1.3-2.7-.4-3.6-1.3Z"/>
    <path class="st0" d="M222.3,18.2l-2.1-3h-2.3v3h-2.5V7.5h4.7c1,0,1.8.2,2.5.5.7.3,1.2.8,1.6,1.4.4.6.6,1.3.6,2.1s-.2,1.5-.6,2.1c-.4.6-.9,1-1.6,1.3l2.4,3.5h-2.7ZM221.7,10c-.4-.3-1-.5-1.7-.5h-2v3.8h2c.8,0,1.3-.2,1.7-.5.4-.3.6-.8.6-1.4s-.2-1.1-.6-1.4Z"/>
    <path class="st0" d="M226.6,7.5h2.5v10.8h-2.5V7.5Z"/>
    <path class="st0" d="M232.6,18.1c-.8-.2-1.4-.5-1.9-.9l.8-1.9c.5.3,1,.6,1.6.8.6.2,1.3.3,1.9.3s1.2-.1,1.6-.3.5-.5.5-.8-.1-.5-.3-.6c-.2-.2-.5-.3-.8-.4-.3-.1-.7-.2-1.3-.3-.8-.2-1.5-.4-2-.6-.5-.2-1-.5-1.3-.9-.4-.4-.6-1-.6-1.7s.2-1.2.5-1.7c.3-.5.9-.9,1.5-1.2.7-.3,1.5-.4,2.5-.4s1.4,0,2,.2c.7.2,1.2.4,1.7.7l-.8,1.9c-1-.6-2-.8-3-.8s-1.2.1-1.5.3c-.3.2-.5.5-.5.9s.2.6.6.8c.4.2,1,.4,1.8.5.8.2,1.5.4,2,.6.5.2,1,.5,1.3.9.4.4.6,1,.6,1.7s-.2,1.2-.5,1.7c-.3.5-.9.9-1.6,1.2-.7.3-1.5.4-2.5.4s-1.7-.1-2.5-.3Z"/>
    <path class="st0" d="M251.3,18.2v-6.5s-3.2,5.3-3.2,5.3h-1.1l-3.2-5.2v6.3h-2.3V7.5h2.1l4,6.7,4-6.7h2.1v10.8s-2.3,0-2.3,0Z"/>
    <path class="st0" d="M257.7,17.7c-.9-.5-1.6-1.1-2.1-2-.5-.8-.8-1.8-.8-2.9s.3-2,.8-2.9c.5-.8,1.2-1.5,2.1-2,.9-.5,1.9-.7,3-.7s2.1.2,3,.7c.9.5,1.6,1.1,2.1,2s.8,1.8.8,2.9-.3,2-.8,2.9-1.2,1.5-2.1,2c-.9.5-1.9.7-3,.7s-2.1-.2-3-.7ZM262.4,15.9c.5-.3.9-.7,1.2-1.2s.4-1.1.4-1.8-.1-1.3-.4-1.8-.7-.9-1.2-1.2-1.1-.4-1.7-.4-1.2.1-1.7.4-.9.7-1.2,1.2-.4,1.1-.4,1.8.1,1.3.4,1.8.7.9,1.2,1.2c.5.3,1.1.4,1.7.4s1.2-.1,1.7-.4Z"/>
  </g>
</svg>